{"title":"Downton Abbey S06E02 x264 RB58.mp4","uid":12503153,"size":548542782,"categoryP":"video","categoryS":"tv_shows","magnet":"?xt=urn:btih:ae3a546b5a52f5d71b38fbce0cf1216afec42626&amp;dn=Downton+Abbey+S06E02+x264+RB58.mp4&amp;tr=udp%3A%2F%2Ftracker.leechers-paradise.org%3A6969&amp;tr=udp%3A%2F%2Fzer0day.ch%3A1337&amp;tr=udp%3A%2F%2Fopen.demonii.com%3A1337&amp;tr=udp%3A%2F%2Ftracker.coppersurfer.tk%3A6969&amp;tr=udp%3A%2F%2Fexodus.desync.com%3A6969","seeders":0,"leechers":0,"uploader":"RedBaron58","files":1,"time":1443403612,"description":"Downton Abbey S06E02 x264 mp4\r\n \nhttp://www.imdb.com/title/tt1606375/\r\n\r\nTrailer:\r\n\r\n\r\nPlease be patient My intial upload speed is limited.\r\nThank you for your kind comments and feedback on my other torrents, your feedback is welcome.\r\n\r\n\r\nAbout the Episode:\r\nPlans for the wedding are gathering steam, but Lady Mary's meddling lands Carson in trouble with \r\nMrs Hughes. Cora and Violet clash over plans for the hospital takeover, and Thomas's job search is \r\nproving disheartening. \r\nMary comes up with a fresh idea that offers Anna new hope, prompting a trip to London, and \r\nLady Edith faces challenges at the magazine although it's a problem closer to home that reaches \r\nbreaking point. \r\nA day out for the family and servants ends in panic and leaves Robert facing a difficult decision.\r\n \r\nStarring Maggie Smith, Hugh Bonneville and Michelle Dockery\r\n\r\nI hope you enjoy.\r\n\r\n\r\nTechnical:\r\n\r\nGeneral\r\nComplete name                            : H:Downton Abbey S06E02 x264 RB58.mp4\r\nFormat                                   : MPEG-4\r\nFormat profile                           : Base Media\r\nCodec ID                                 : isom\r\nFile size                                : 523 MiB\r\nDuration                                 : 47mn 49s\r\nOverall bit rate                         : 1 529 Kbps\r\nWriting application                      : Lavf54.63.104\r\n\r\nVideo\r\nID                                       : 1\r\nFormat                                   : AVC\r\nFormat/Info                              : Advanced Video Codec\r\nFormat profile                           :   \r\nFormat settings, CABAC                   : Yes\r\nFormat settings, ReFrames                : 4 frames\r\nCodec ID                                 : avc1\r\nCodec ID/Info                            : Advanced Video Coding\r\nDuration                                 : 47mn 49s\r\nBit rate                                 : 1 400 Kbps\r\nWidth                                    : 832 pixels\r\nHeight                                   : 468 pixels\r\nDisplay aspect ratio                     : 16:9\r\nFrame rate mode                          : Constant\r\nFrame rate                               : 25.000 fps\r\nColor space                              : YUV\r\nChroma subsampling                       : 4:2:0\r\nBit depth                                : 8 bits\r\nScan type                                : Progressive\r\nBits/(Pixel*Frame)                       : 0.144\r\nStream size                              : 479 MiB (92%)\r\nWriting library                          : x264 core 123 r2189 35cf912\r\nEncoding settings                        : cabac=1 / ref=3 / deblock=1:0:0\r\n\r\nAudio\r\nID                                       : 2\r\nFormat                                   : AAC\r\nFormat/Info                              : Advanced Audio Codec\r\nFormat profile                           : LC\r\nCodec ID                                 : 40\r\nDuration                                 : 47mn 49s\r\nBit rate mode                            : Constant\r\nBit rate                                 : 120 Kbps\r\nChannel(s)                               : 2 channels\r\nChannel positions                        : Front: L R\r\nSampling rate                            : 48.0 KHz\r\nCompression mode                         : Lossy\r\nStream size                              : 41.1 MiB (8%)","torrent":{"xt":"urn:btih:ae3a546b5a52f5d71b38fbce0cf1216afec42626","amp;dn":"Downton+Abbey+S06E02+x264+RB58.mp4","amp;tr":["udp%3A%2F%2Ftracker.leechers-paradise.org%3A6969","udp%3A%2F%2Fzer0day.ch%3A1337","udp%3A%2F%2Fopen.demonii.com%3A1337","udp%3A%2F%2Ftracker.coppersurfer.tk%3A6969","udp%3A%2F%2Fexodus.desync.com%3A6969"],"infoHash":"ae3a546b5a52f5d71b38fbce0cf1216afec42626","infoHashBuffer":{"type":"Buffer","data":[174,58,84,107,90,82,245,215,27,56,251,206,12,241,33,106,254,196,38,38]},"announce":[],"urlList":[]}}